<svg id="Layer_1" data-name="Layer 1" xmlns="http://www.w3.org/2000/svg" xmlns:xlink="http://www.w3.org/1999/xlink" viewBox="0 0 4352.21 2150.3"><defs><style>.cls-1{fill:url(#linear-gradient);}.cls-2{fill:url(#linear-gradient-2);}.cls-14,.cls-3{fill:none;}.cls-3{clip-rule:evenodd;}.cls-4{clip-path:url(#clip-path);}.cls-5{fill:url(#linear-gradient-3);}.cls-6{clip-path:url(#clip-path-2);}.cls-7{fill:url(#linear-gradient-4);}.cls-8{clip-path:url(#clip-path-3);}.cls-9{fill:url(#linear-gradient-5);}.cls-10{clip-path:url(#clip-path-4);}.cls-11{fill:url(#linear-gradient-6);}.cls-12{mask:url(#mask);}.cls-13{fill:#990038;}.cls-13,.cls-36{fill-rule:evenodd;}.cls-14{stroke:#231916;stroke-miterlimit:22.93;stroke-width:0.57px;}.cls-15{clip-path:url(#clip-path-5);}.cls-16{fill:url(#linear-gradient-7);}.cls-17{clip-path:url(#clip-path-6);}.cls-18{fill:url(#linear-gradient-8);}.cls-19{clip-path:url(#clip-path-7);}.cls-20{fill:url(#linear-gradient-9);}.cls-21{clip-path:url(#clip-path-8);}.cls-22{fill:url(#linear-gradient-10);}.cls-23{clip-path:url(#clip-path-9);}.cls-24{fill:url(#linear-gradient-11);}.cls-25{clip-path:url(#clip-path-10);}.cls-26{fill:url(#linear-gradient-12);}.cls-27{clip-path:url(#clip-path-11);}.cls-28{fill:url(#linear-gradient-13);}.cls-29{clip-path:url(#clip-path-12);}.cls-30{fill:url(#linear-gradient-14);}.cls-31{clip-path:url(#clip-path-13);}.cls-32{fill:url(#linear-gradient-15);}.cls-33{clip-path:url(#clip-path-14);}.cls-34{fill:url(#linear-gradient-16);}.cls-35{mask:url(#mask-2);}.cls-36{fill:#102770;}.cls-37{fill:#231916;}</style><linearGradient id="linear-gradient" x1="-1327.28" y1="1929.08" x2="-2249.33" y2="727.91" gradientTransform="translate(2282.22 -226.23)" gradientUnits="userSpaceOnUse"><stop offset="0" stop-color="#fff"/><stop offset="1"/></linearGradient><linearGradient id="linear-gradient-2" x1="-2144.23" y1="1756.37" x2="-554.31" y2="789.44" gradientTransform="translate(2422.35 -597.88)" xlink:href="#linear-gradient"/><clipPath id="clip-path" transform="translate(-78.79 71.28)"><path class="cls-3" d="M630.56,1855.25c385.72-89.44,592.87-278.66,677-538.61-118.32,16.18-171.82,42.79-223.63,52.31-97.16,238.16-294.39,398.58-453.33,486.3"/></clipPath><linearGradient id="linear-gradient-3" x1="993.94" y1="1579.04" x2="318.41" y2="2088.39" gradientUnits="userSpaceOnUse"><stop offset="0" stop-color="#00478f"/><stop offset="1" stop-color="#29c4ff"/></linearGradient><clipPath id="clip-path-2" transform="translate(-78.79 71.28)"><path class="cls-3" d="M789.19,2014.78c352-181.32,506.41-415.57,524.18-688.2-110.74,44.7-156.08,83.63-204,105.56-35.78,254.71-187.64,458.61-320.21,582.64"/></clipPath><linearGradient id="linear-gradient-4" x1="1100.79" y1="1570.7" x2="542.31" y2="2316.15" xlink:href="#linear-gradient-3"/><clipPath id="clip-path-3" transform="translate(-78.79 71.28)"><path class="cls-3" d="M1021.94,2079c243.14-224.74,315.24-448,268.65-671.66-79.25,60.77-107.09,102.26-140.78,130.63,28.07,213.24-48.75,411.48-127.87,541"/></clipPath><linearGradient id="linear-gradient-5" x1="1164.41" y1="1566.46" x2="999.76" y2="2208.13" xlink:href="#linear-gradient-3"/><clipPath id="clip-path-4" transform="translate(-78.79 71.28)"><path class="cls-3" d="M162,703.35C295.68,80.55,1124.64,870.44,1246,1104.57c0,0,269.14,533.3-69.78,952,224.69-463-147-662.16-477.11-779.91-368.35-131.4-312.55-403.89-442.09-469.35-64.05-32.37-132.12,0-168.58,65.54C78.79,815.5,84,771.26,162,703.35"/></clipPath><linearGradient id="linear-gradient-6" x1="638.86" y1="271.08" x2="738.54" y2="1362.59" gradientUnits="userSpaceOnUse"><stop offset="0" stop-color="#ffce4b"/><stop offset="1" stop-color="#d3226f"/></linearGradient><mask id="mask" x="9.69" y="771.18" width="1184.85" height="1291.88" maskUnits="userSpaceOnUse"><g transform="translate(-78.79 71.28)"><rect class="cls-1" x="88.47" y="699.9" width="1184.85" height="1291.88"/></g></mask><clipPath id="clip-path-5" transform="translate(-78.79 71.28)"><path class="cls-3" d="M871.52,1330.92c79.93-197.39,60.72-347.06-27.66-464.45C814.39,923.54,791.49,972.21,779.65,998c52.85,135.45,88.83,272.6,91.87,333"/></clipPath><linearGradient id="linear-gradient-7" x1="781.56" y1="1121.41" x2="824.05" y2="1518.14" gradientUnits="userSpaceOnUse"><stop offset="0" stop-color="#00478f"/><stop offset="1" stop-color="#51f4e9"/></linearGradient><clipPath id="clip-path-6" transform="translate(-78.79 71.28)"><path class="cls-3" d="M1023.57,1360.49c81.25-288.12,31.35-494.28-110.24-644.69C881,800.09,856.45,871.61,843.88,909.41c94.73,181.11,166.14,367.19,179.69,451.08"/></clipPath><linearGradient id="linear-gradient-8" x1="881.77" y1="1011.02" x2="970.6" y2="1644.51" xlink:href="#linear-gradient-3"/><clipPath id="clip-path-7" transform="translate(-78.79 71.28)"><path class="cls-3" d="M1243.46,1353.16c43.16-328.28-44.21-546-223.08-688.14-22,97.4-46.7,162.16-54.45,205.53,132.45,183.19,249.37,392.94,277.53,482.61"/></clipPath><linearGradient id="linear-gradient-9" x1="899.86" y1="786.49" x2="1217.73" y2="1419.25" gradientUnits="userSpaceOnUse"><stop offset="0" stop-color="#003780"/><stop offset="1" stop-color="#b222d3"/></linearGradient><clipPath id="clip-path-8" transform="translate(-78.79 71.28)"><path class="cls-3" d="M1415.19,1343.19c59.23-373.42-72.19-593.89-322.93-722-19.36,35.66-37.41,70.24-53.69,102.26,176.24,206.44,344,505.19,376.62,619.7"/></clipPath><linearGradient id="linear-gradient-10" x1="1192.01" y1="1063.03" x2="1592.86" y2="1330.68" gradientUnits="userSpaceOnUse"><stop offset="0" stop-color="#4e046d"/><stop offset="1" stop-color="#ff8bc7"/></linearGradient><clipPath id="clip-path-9" transform="translate(-78.79 71.28)"><path class="cls-3" d="M1746.18,1226.75c-71.62-430-308.4-603.66-644.9-629-14.45,26.14-28.21,51.85-41.1,76.51,269.36,135.47,604.92,434,686,552.49"/></clipPath><linearGradient id="linear-gradient-11" x1="1021.45" y1="711.6" x2="1834.7" y2="1441.59" xlink:href="#linear-gradient-10"/><clipPath id="clip-path-10" transform="translate(-78.79 71.28)"><path class="cls-3" d="M2040,1020C1820.35,579,1511,455.64,1144,523c-22.1,37.42-43.2,75.26-62.75,111.64C1431.44,696,1908.37,915,2040,1020"/></clipPath><linearGradient id="linear-gradient-12" x1="1396.13" y1="765.46" x2="2007.45" y2="1076.86" gradientUnits="userSpaceOnUse"><stop offset="0" stop-color="#b91c58"/><stop offset="1" stop-color="#f95c97"/></linearGradient><clipPath id="clip-path-11" transform="translate(-78.79 71.28)"><path class="cls-3" d="M2178.06,769.56c-287.92-404.27-615.43-476-970.41-348.39-25,37.38-49.46,77.21-72.75,117.24,356.47-3.73,891.71,145.05,1043.16,231.15"/></clipPath><linearGradient id="linear-gradient-13" x1="1235.59" y1="539.02" x2="2237.4" y2="725.92" gradientUnits="userSpaceOnUse"><stop offset="0" stop-color="#b91c58"/><stop offset="1" stop-color="#ff8bc7"/></linearGradient><clipPath id="clip-path-12" transform="translate(-78.79 71.28)"><path class="cls-3" d="M2119.59,485.53c-291.15-295.59-570.87-309-846.93-153.78-26.2,32.58-52.54,69.9-78.22,109.46,287.2-62.81,783.35-8.72,925.15,44.32"/></clipPath><linearGradient id="linear-gradient-14" x1="1991.49" y1="474.74" x2="1304.69" y2="354.38" xlink:href="#linear-gradient-6"/><clipPath id="clip-path-13" transform="translate(-78.79 71.28)"><path class="cls-3" d="M1000.28,813c191-324.25,410.82-744.41,990.89-802.42C1399.7-71.28,1052.51,354.24,793.63,653c-185.07,213.56-325,362.34-476.8,214.65,50.35,84,75,222.67,225.44,329.48,210,14.72,327.29-162.25,458-384.13"/></clipPath><linearGradient id="linear-gradient-15" x1="794.08" y1="1358.53" x2="1215.24" y2="284.45" gradientUnits="userSpaceOnUse"><stop offset="0" stop-color="#00478f"/><stop offset="1" stop-color="#c11fda"/></linearGradient><clipPath id="clip-path-14" transform="translate(-78.79 71.28)"><path class="cls-3" d="M2180.56,239.83c-309-219.3-579-116.31-579-116.31-148.53,78-261.79,187.27-355.19,306.42,132.29-166.74,771.76-220,934.23-190.11"/></clipPath><linearGradient id="linear-gradient-16" x1="2004.67" y1="333.05" x2="1045.88" y2="238.37" xlink:href="#linear-gradient-6"/><mask id="mask-2" x="308.99" y="81.77" width="1603.39" height="1187.48" maskUnits="userSpaceOnUse"><g transform="translate(-78.79 71.28)"><rect class="cls-2" x="387.78" y="10.5" width="1603.39" height="1187.48"/></g></mask></defs><g class="cls-4"><rect class="cls-5" x="551.77" y="1387.92" width="676.97" height="538.61"/></g><g class="cls-6"><rect class="cls-7" x="710.4" y="1397.85" width="524.18" height="688.2"/></g><g class="cls-8"><rect class="cls-9" x="943.16" y="1478.64" width="315.24" height="671.66"/></g><g class="cls-10"><rect class="cls-11" y="151.83" width="1436.39" height="1975.98"/></g><g class="cls-12"><path class="cls-13" d="M1204.49,1991.79c160.9-417.13-191.06-603.06-505.35-715.17-368.35-131.4-312.55-403.89-442.09-469.35-64.05-32.37-132.12,0-168.58,65.54,0,0,131-423.7,666.57,55.42,0,0,743.57,333.06,449.45,1063.56" transform="translate(-78.79 71.28)"/></g><path class="cls-14" d="M316.83,867.63c364.11,354.28,660-997.41,1674.34-857.07-977,97.7-931.95,1222.78-1448.9,1186.55" transform="translate(-78.79 71.28)"/><g class="cls-15"><rect class="cls-16" x="700.86" y="937.75" width="171.8" height="464.45"/></g><g class="cls-17"><rect class="cls-18" x="765.1" y="787.08" width="260.93" height="644.68"/></g><g class="cls-19"><rect class="cls-20" x="887.14" y="736.3" width="320.69" height="688.14"/></g><g class="cls-21"><rect class="cls-22" x="959.79" y="692.5" width="435.85" height="721.97"/></g><g class="cls-23"><rect class="cls-24" x="981.39" y="669.03" width="686" height="629"/></g><g class="cls-25"><rect class="cls-26" x="1002.41" y="526.92" width="958.83" height="564.39"/></g><g class="cls-27"><rect class="cls-28" x="1056.12" y="364.86" width="1043.16" height="475.98"/></g><g class="cls-29"><rect class="cls-30" x="1115.66" y="247.82" width="925.14" height="308.99"/></g><g class="cls-31"><rect class="cls-32" x="238.05" width="1674.34" height="1283.11"/></g><g class="cls-33"><rect class="cls-34" x="1167.55" y="91.8" width="934.23" height="409.42"/></g><g class="cls-35"><path class="cls-36" d="M913.33,715.8c-331.44,510.57-525.55,299.94-525.55,299.94,31.54,60.92,75.82,125.5,154.49,181.37,210,14.72,327.29-162.25,458-384.13,191-324.25,410.82-744.41,990.89-802.42C1315.91,2.5,913.33,715.8,913.33,715.8" transform="translate(-78.79 71.28)"/></g><path class="cls-37" d="M4407.55,1647.15H4431V1337h-29.21l-117.26,180.77L4165.93,1337h-28.32v310.2h23.9V1371.54L4281,1553.19h8l118.6-181.65ZM4048.67,1337v192.49c0,132.76-190.28,133.2-190.28,0V1337h-23.46v192.49c0,162.41,237.19,162,237.19,0V1337Zm-273.48,48.68c-30.53-45.58-69-52.66-113.28-52.66-50.89,0-119,20.35-117.71,85.84,0,57.09,58,68.6,114.61,79.66,50.89,9.73,102.22,19.91,101.78,66.38,0,54.87-60.62,65.49-98.68,65.49s-86.73-18.59-105.76-56.2l-21.24,10.62c23.89,47.35,78.76,67.26,127,67.26,51.77,0,122.13-16.82,122.58-86.73,0-66.82-62-77.44-121.7-89-52.21-9.73-94.69-19-94.69-58.41,0-49.56,57.52-62.84,93.81-62.84,35,.45,71.24,5.76,93.81,42Zm-373.92,154.43c134.52,0,134.52-203.11,0-203.11H3265.42v310.2h23.89V1540.06Zm0-181c103.1,0,103.1,159.3,0,159.3h-112v-159.3Zm-204,288.07V1337h-23.45v310.2Zm-233.21,0h58.42V1337.84h-66.82l-96.92,133-96.91-133h-67.26v309.31H2753V1422.28L2851.66,1557h11.51l100.89-134.31ZM2649,1589.63H2475.08v-69.92H2642.8v-54.43H2475.08v-71.69H2649V1337H2417.11v310.2H2649ZM2267.1,1391.38c36.73,0,53.1,24.85,53.1,49.78s-15.93,49.78-53.1,49.78h-88.94v-99.56Zm127,251.79-93.81-105.76c58.86-12,78.33-54.87,78.33-97.58,0-53.76-38.5-102.44-111.52-102.88-49.12.44-98.24,0-147.36,0v310.2h58.42V1543.6h56.2l90.27,103.55h69.47ZM1917.52,1384.3c73,0,102.22,58.41,101.33,110.63-.88,50.89-28.32,105.76-101.33,105.76s-100.46-54.43-101.78-105.32C1814.41,1443.15,1844.5,1384.3,1917.52,1384.3Zm0-53.1c-107.09,0-159.31,81.86-159.31,163.29s50.45,159.74,159.31,159.74,158-80.09,158.86-160.19C2077.26,1413.06,2024.16,1331.2,1917.52,1331.2ZM1522.35,1337v310.2h217.72v-54H1580.76V1337Z" transform="translate(-78.79 71.28)"/></svg>